<svg xmlns="http://www.w3.org/2000/svg" viewBox="0 0 15 13" width="15" height="13">
	<style>
		tspan { white-space:pre }
		.shp0 { fill: #c7b299;stroke: #ff0000;paint-order:stroke fill markers;stroke-width: 1.1 } 
	</style>
	<path id="logos" class="shp0" d="M8.54 3.71L6.62 3.71L7.58 5.4L8.54 3.71ZM6.38 3.85L5.42 5.54L7.34 5.54L6.38 3.85ZM9.74 5.54L8.78 3.85L7.82 5.54L9.74 5.54ZM7.82 5.82L8.78 7.51L9.74 5.82L7.82 5.82ZM5.42 5.82L6.38 7.51L7.34 5.82L5.42 5.82ZM4.22 7.65L6.14 7.65L5.18 5.96L4.22 7.65ZM10.94 7.65L9.98 5.96L9.02 7.65L10.94 7.65ZM7.58 1.73L6.62 3.42L8.54 3.42L7.58 1.73ZM9.98 9.62L10.94 7.93L9.02 7.93L9.98 9.62ZM5.18 9.62L6.14 7.93L4.22 7.93L5.18 9.62ZM3.02 9.76L4.94 9.76L3.98 8.07L3.02 9.76ZM12.14 9.76L11.18 8.07L10.22 9.76L12.14 9.76ZM10.22 10.04L11.18 11.73L12.14 10.04L10.22 10.04ZM7.82 10.04L8.78 11.73L9.74 10.04L7.82 10.04ZM3.98 11.73L4.94 10.04L3.02 10.04L3.98 11.73ZM1.82 11.87L3.74 11.87L2.78 10.18L1.82 11.87ZM6.62 11.87L8.54 11.87L7.58 10.18L6.62 11.87ZM9.02 11.87L10.94 11.87L9.98 10.18L9.02 11.87ZM12.38 10.18L11.42 11.87L13.34 11.87L12.38 10.18Z" />
</svg>