<svg xmlns="http://www.w3.org/2000/svg" width="80" height="76"><style/><g id="CONTENT"><g id="Video Presentation"><g id="Play Video"><path id="icon-play" d="M34.93 56.82c-.29 0-.59-.06-.87-.19a2.077 2.077 0 01-1.19-1.87V25.24c0-.8.47-1.53 1.19-1.87.72-.34 1.58-.23 2.19.28l17.72 14.77c.47.39.74.97.74 1.58 0 .61-.27 1.19-.74 1.58L36.25 56.34c-.37.32-.84.48-1.32.48zm2.06-27.19v20.73L49.43 40 36.99 29.63zM39.94 75c-5.87 0-11.77-1.46-17.11-4.47a2.064 2.064 0 01-.78-2.81 2.05 2.05 0 012.8-.78c12.02 6.76 27.23 4.67 37-5.09 12.04-12.05 12.04-31.65 0-43.7C49.8 6.1 30.2 6.1 18.15 18.15 6.1 30.2 6.1 49.8 18.15 61.85c.8.8.8 2.1 0 2.91-.8.8-2.11.8-2.91 0-13.66-13.66-13.66-35.87 0-49.52 13.65-13.66 35.86-13.66 49.52 0 13.65 13.65 13.65 35.86 0 49.52C58.03 71.48 49.03 75 39.94 75z" fill="#fff"/></g></g></g></svg>