<svg xmlns="http://www.w3.org/2000/svg" width="51" height="51"><style/><g id="CONTENT"><g id="Services"><g id="Web &amp; App design"><path id="icon" d="M48.67 18.47c-.63-.62-1.63-.62-2.25 0L32.57 32.31l-19.46 8.58-3-3 8.57-19.47L32.53 4.58c.62-.63.62-1.63 0-2.25-.63-.62-1.63-.62-2.25 0L16.01 16.59 1.53 49.46 34.4 34.99l14.27-14.27c.62-.62.62-1.63 0-2.25zm-20.17 11c.31.3.71.46 1.12.46.41 0 .81-.16 1.13-.46l13.33-13.34c.62-.62.62-1.62 0-2.25-.63-.62-1.63-.62-2.25 0L28.5 27.22c-.62.62-.62 1.62 0 2.25zm-3.48-3.48c.31.3.71.46 1.12.46.41 0 .81-.16 1.12-.46L40.6 12.65c.62-.62.62-1.63 0-2.25-.63-.62-1.63-.62-2.25 0L25.02 23.73c-.63.62-.63 1.63 0 2.26zm-3.49-3.49c.31.31.72.47 1.13.47.41 0 .81-.16 1.12-.47L37.12 9.17c.62-.62.62-1.63 0-2.25-.62-.62-1.63-.62-2.25 0L21.53 20.25c-.62.62-.62 1.63 0 2.25z" fill="#c7b299"/></g></g></g></svg>