<svg xmlns="http://www.w3.org/2000/svg" width="55" height="38"><style/><g id="CONTENT"><g id="Services"><g id="Marketing"><path id="icon" d="M10 14.25c1-2.06 3.47-3.61 5.74-3.61h26.21V8.98c0-1.36-1.11-2.48-2.46-2.48H28.67V5.06c0-2.06-1.65-3.73-3.68-3.73H18.7c-.98 0-1.91.39-2.61 1.1-.7.7-1.08 1.63-1.08 2.63V6.5H4.2c-1.36 0-2.46 1.12-2.46 2.48v22.17L10 14.25zm7.47-9.19c0-.33.13-.64.36-.88.23-.24.54-.36.87-.36h6.29c.68 0 1.23.55 1.23 1.24V6.5h-8.75V5.06zm25.45 29.7c-.59 1.22-2.19 2.22-3.54 2.22H4.08c-1.35 0-1.97-1-1.37-2.22l9.49-19.42c.6-1.22 2.19-2.22 3.54-2.22h35.3c1.35 0 1.97 1 1.37 2.22l-9.49 19.42z" fill="#555"/></g></g></g></svg>