<svg xmlns="http://www.w3.org/2000/svg" width="56" height="46"><style/><g id="CONTENT"><g id="Counters"><g id="We Launched"><path id="icon" d="M53.31 41.61H2.69a1.694 1.694 0 000 3.39h50.62a1.694 1.694 0 000-3.39zM29.69 7.77V4.39h3.37a1.694 1.694 0 000-3.39H22.94a1.694 1.694 0 000 3.39h3.37s-.01 3.52 0 3.38C12.19 8.65 1 20.46 1 34.84v1.7c0 .93.76 1.69 1.69 1.69h50.62c.93 0 1.69-.76 1.69-1.69v-1.7C55 20.46 43.81 8.65 29.69 7.77zM4.38 34.84c0-13.08 10.57-23.68 23.62-23.68s23.62 10.6 23.62 23.68H4.38z" fill="#c7b299"/></g></g></g></svg>