<svg xmlns="http://www.w3.org/2000/svg" width="46" height="47"><style/><g id="CONTENT"><g id="Counters"><g id="Satisfied Clients"><path id="icon" d="M20.94 32.25c5.69 0 10.31-5.63 10.31-12.55 0-6.92-4.62-12.54-10.31-12.54-2.82 0-5.44 1.34-7.4 3.78-1.88 2.36-2.92 5.47-2.92 8.76 0 6.92 4.63 12.55 10.32 12.55zm0-22.34c4.17 0 7.56 4.39 7.56 9.79 0 5.41-3.39 9.8-7.56 9.8s-7.57-4.39-7.57-9.8c0-5.4 3.4-9.79 7.57-9.79zm8.66 20.96a1.374 1.374 0 100 2.75c4.7 0 8.52 3.83 8.52 8.53 0 .61-.49 1.1-1.1 1.1H4.85c-.61 0-1.1-.49-1.1-1.1 0-4.7 3.82-8.53 8.52-8.53a1.374 1.374 0 100-2.75C6.06 30.87 1 35.93 1 42.15 1 44.27 2.73 46 4.85 46h32.17c2.13 0 3.85-1.73 3.85-3.85 0-6.22-5.05-11.28-11.27-11.28zM21.94 5.63c.99-.58 2.04-.88 3.12-.88 4.17 0 7.56 4.4 7.56 9.8 0 .97-.1 1.92-.31 2.83-.18.73.28 1.47 1.02 1.65.1.02.21.03.31.03.63 0 1.19-.42 1.34-1.06.26-1.11.39-2.27.39-3.45C35.37 7.63 30.75 2 25.06 2c-1.56 0-3.12.44-4.52 1.26-.65.39-.87 1.23-.48 1.88.39.66 1.23.87 1.88.49zM34 25.37a1.374 1.374 0 100 2.75c4.7 0 8.25 3.92 8.25 8.62 0 .16-.03.31-.09.45-.31.7 0 1.51.69 1.82.18.08.37.11.56.11.53 0 1.03-.3 1.26-.81.22-.5.33-1.02.33-1.57 0-6.21-4.78-11.37-11-11.37z" fill="#c7b299"/></g></g></g></svg>