<svg xmlns="http://www.w3.org/2000/svg" width="46" height="46"><style/><g id="CONTENT"><g id="Counters"><g id="Blog Posts"><path id="icon" d="M29.87 24.37H16.13a1.374 1.374 0 100 2.75h13.74a1.374 1.374 0 100-2.75zm2.75-8.24H13.38c-.76 0-1.38.61-1.38 1.37 0 .76.62 1.37 1.38 1.37h19.24c.76 0 1.38-.61 1.38-1.37 0-.76-.62-1.37-1.38-1.37zM23 1C10.85 1 1 9.62 1 20.25c0 6.07 3.23 11.48 8.25 15.01V45l9.64-5.85c1.33.22 2.7.35 4.11.35 12.15 0 22-8.62 22-19.25S35.15 1 23 1zm0 35.75c-1.61 0-3.16-.19-4.65-.51l-6.47 3.89.09-6.37c-4.96-2.99-8.22-7.92-8.22-13.51 0-9.11 8.62-16.5 19.25-16.5s19.25 7.39 19.25 16.5-8.62 16.5-19.25 16.5z" fill="#c7b299"/></g></g></g></svg>