<svg xmlns="http://www.w3.org/2000/svg" width="20" height="27"><style/><g id="HEADER"><g id="Cart"><path id="icon-cart" d="M16 5h-1.5c0-1.66-2.02-3-4.5-3-2.49 0-4.5 1.34-4.5 3H4C2.35 5 1 6.34 1 8v15a3 3 0 003 2.99h12c1.65 0 2.99-1.34 2.99-2.99V8c0-1.66-1.34-3-2.99-3zm-6-1.5c1.66 0 3 .46 3 1.5H7c0-1.04 1.34-1.5 3-1.5zM17.49 23c0 .82-.67 1.49-1.49 1.49H4c-.83 0-1.5-.67-1.5-1.49v-1.5h14.99V23zm0-3H2.5V8c0-.83.67-1.5 1.5-1.5h1.5V11H7V6.5h6V11h1.5V6.5H16c.82 0 1.49.67 1.49 1.5v12z" fill="#fff"/></g></g></svg>