<svg xmlns="http://www.w3.org/2000/svg" width="66" height="59"><style/><g id="HEADER"><g id="Logo"><path id="logos" d="M38.11 12.71H27.6l5.25 9.19 5.26-9.19zm-11.82.77l-5.26 9.19h10.51l-5.25-9.19zm18.39 9.19l-5.26-9.19-5.25 9.19h10.51zM34.17 24.2l5.25 9.19 5.26-9.19H34.17zm-13.14 0l5.26 9.19 5.25-9.19H21.03zm-6.57 9.95h10.51l-5.25-9.18-5.26 9.18zm36.78 0l-5.25-9.18-5.25 9.18h10.5zM32.85 1.99l-5.25 9.19h10.51l-5.26-9.19zm13.14 42.88l5.25-9.18h-10.5l5.25 9.18zm-26.27 0l5.25-9.18H14.46l5.26 9.18zm-11.82.77h10.5l-5.25-9.19-5.25 9.19zm49.91 0l-5.25-9.19-5.26 9.19h10.51zM47.3 47.17l5.26 9.19 5.25-9.19H47.3zm-13.13 0l5.25 9.19 5.26-9.19H34.17zm-21.02 9.19l5.25-9.19H7.9l5.25 9.19zm-11.82.77h10.51l-5.26-9.19-5.25 9.19zm26.27 0h10.51l-5.26-9.19-5.25 9.19zm13.14 0h10.5l-5.25-9.19-5.25 9.19zm18.39-9.19l-5.26 9.19h10.51l-5.25-9.19z" fill="#fff"/></g></g></svg>